<?xml version="1.0" encoding="UTF-8"?>
<svg id="Layer_1" xmlns="http://www.w3.org/2000/svg" version="1.1" viewBox="0 0 48 48">
  <!-- Generator: Adobe Illustrator 30.2.1, SVG Export Plug-In . SVG Version: 2.1.1 Build 1)  -->
  <defs>
    <style>
      .st0 {
        fill: #f07a6a;
      }
    </style>
  </defs>
  <path class="st0" d="M42.5,8.7v9c0,.8-.7,1.5-1.5,1.5h-9c-.8,0-1.5-.7-1.5-1.5s.7-1.5,1.5-1.5h5.4l-5.4-5.4c-6.9-4.6-16.2-2.7-20.8,4.2-4.6,6.9-2.7,16.2,4.2,20.8,6.9,4.6,16.2,2.7,20.8-4.2,0-.1.2-.3.3-.4.6-.6,1.7-.6,2.3,0,.6.6.6,1.7,0,2.3-5.3,8.4-16.4,11-24.8,5.7-8.4-5.3-11-16.4-5.7-24.8,5.3-8.4,16.4-11,24.8-5.7.4.2.7.5,1.1.7l5.4,5.4v-6.1c0-.8.7-1.5,1.5-1.5s1.5.7,1.5,1.5Z"/>
</svg>