<?xml version="1.0" encoding="utf-8"?>
<svg xmlns="http://www.w3.org/2000/svg" viewBox="335 18 255 260" width="256" height="256">
<g class="klknot"><path fill="#d89848" transform="scale(0.527344 0.527344)" d="M1014.36 321.973C1003.94 311.035 970.71 274.861 960.47 269.106C934.675 296.128 910.211 319.998 882.354 346.835C880.223 348.888 878.018 351.039 875.745 353.256C841.552 386.608 791.872 435.067 745.164 393.536C725.199 375.784 724.899 348.884 732.973 324.642C719.268 310.123 696.481 284.974 681.641 272.091C658.639 303.117 647.887 329.402 653.692 369.024C654.816 376.975 656.561 384.828 658.906 392.509C671.839 428.008 692.133 451.993 726.676 468.298C825.77 515.079 895.753 442.256 961.003 374.358C978.977 355.655 996.591 337.326 1014.36 321.973Z"/><path fill="#d89848" transform="scale(0.527344 0.527344)" d="M967.92 158.61C963.804 154.05 942.283 133.306 937.497 131.717C913.694 147.923 903.334 159.621 883.998 180.821C904.548 199.6 927.605 222.682 947.601 242.255C967.877 262.102 1008.05 299.483 1022.2 322.675C1027.44 331.13 1030.36 340.815 1030.67 350.758C1032.68 401.767 984.458 416.368 942.217 404.821C922.128 422.544 904.079 438.868 885.128 457.99C895.013 463.438 904.765 468.996 914.996 473.763C935.36 480.308 952.706 484.318 974.616 482.363C1030.14 477.407 1083.04 443.904 1100.14 388.743C1109.73 356.918 1106.37 322.592 1090.8 293.23C1064.57 243.494 1005.44 200.16 967.92 158.61Z"/><path fill="#d89848" transform="scale(0.527344 0.527344)" d="M1050.01 71.3717C1025.44 53.4938 984.4 40.1937 953.897 45.9954C888.027 53.2102 853.277 93.4457 809.162 137.864C786.835 160.053 764.679 182.414 742.696 204.942C757.978 222.006 777.583 244.546 795.724 258.237C828.998 222.543 879.978 169.863 917.489 138.194C949.001 113.292 986.508 105.116 1017.99 138.771C1033.47 155.316 1030.13 181.428 1024.45 201.821C1037.52 215.108 1064.72 244.912 1076.95 255.328C1098.39 226.212 1109.07 195.5 1103.71 158.94C1098.42 123.673 1079.04 92.0674 1050.01 71.3717Z"/><path fill="#d89848" transform="scale(0.527344 0.527344)" d="M869.971 68.7926C844.85 54.0909 808.858 39.5153 779.58 44.778C702.395 54.0942 642.466 110.224 653.043 192.556C655.145 209.604 660.802 226.023 669.651 240.744C684.52 265.649 705.747 283.514 725.402 304.08C754.481 334.507 790.051 362.7 817.168 394.451C831.843 384.055 847.92 370.286 860.049 357.032L871.935 345.961C847.615 322.862 823.543 299.504 799.722 275.89C784.14 260.679 768.453 246.244 754.011 229.859C738.18 211.898 727.518 199.736 726.652 174.736C725.463 140.41 750.702 116.485 784.571 117.017C795.14 117.235 803.872 118.895 814.297 121.482C831.437 105.114 854.196 85.1429 869.971 68.7926Z"/></g>
</svg>