<?xml version="1.0" encoding="utf-8" ?><svg xmlns="http://www.w3.org/2000/svg" xmlns:xlink="http://www.w3.org/1999/xlink" width="925" height="540" viewBox="0 0 925 540"><clipPath id="cl_6"><rect width="925.48828" height="540"/></clipPath><g clip-path="url(#cl_6)"><path fill="#d89848" transform="scale(0.527344 0.527344)" d="M1014.36 321.973C1003.94 311.035 970.71 274.861 960.47 269.106C934.675 296.128 910.211 319.998 882.354 346.835C880.223 348.888 878.018 351.039 875.745 353.256C841.552 386.608 791.872 435.067 745.164 393.536C725.199 375.784 724.899 348.884 732.973 324.642C719.268 310.123 696.481 284.974 681.641 272.091C658.639 303.117 647.887 329.402 653.692 369.024C654.816 376.975 656.561 384.828 658.906 392.509C671.839 428.008 692.133 451.993 726.676 468.298C825.77 515.079 895.753 442.256 961.003 374.358C978.977 355.655 996.591 337.326 1014.36 321.973Z"/><path fill="#d89848" transform="scale(0.527344 0.527344)" d="M967.92 158.61C963.804 154.05 942.283 133.306 937.497 131.717C913.694 147.923 903.334 159.621 883.998 180.821C904.548 199.6 927.605 222.682 947.601 242.255C967.877 262.102 1008.05 299.483 1022.2 322.675C1027.44 331.13 1030.36 340.815 1030.67 350.758C1032.68 401.767 984.458 416.368 942.217 404.821C922.128 422.544 904.079 438.868 885.128 457.99C895.013 463.438 904.765 468.996 914.996 473.763C935.36 480.308 952.706 484.318 974.616 482.363C1030.14 477.407 1083.04 443.904 1100.14 388.743C1109.73 356.918 1106.37 322.592 1090.8 293.23C1064.57 243.494 1005.44 200.16 967.92 158.61Z"/><path fill="#d89848" transform="scale(0.527344 0.527344)" d="M1050.01 71.3717C1025.44 53.4938 984.4 40.1937 953.897 45.9954C888.027 53.2102 853.277 93.4457 809.162 137.864C786.835 160.053 764.679 182.414 742.696 204.942C757.978 222.006 777.583 244.546 795.724 258.237C828.998 222.543 879.978 169.863 917.489 138.194C949.001 113.292 986.508 105.116 1017.99 138.771C1033.47 155.316 1030.13 181.428 1024.45 201.821C1037.52 215.108 1064.72 244.912 1076.95 255.328C1098.39 226.212 1109.07 195.5 1103.71 158.94C1098.42 123.673 1079.04 92.0674 1050.01 71.3717Z"/><path fill="#d89848" transform="scale(0.527344 0.527344)" d="M869.971 68.7926C844.85 54.0909 808.858 39.5153 779.58 44.778C702.395 54.0942 642.466 110.224 653.043 192.556C655.145 209.604 660.802 226.023 669.651 240.744C684.52 265.649 705.747 283.514 725.402 304.08C754.481 334.507 790.051 362.7 817.168 394.451C831.843 384.055 847.92 370.286 860.049 357.032L871.935 345.961C847.615 322.862 823.543 299.504 799.722 275.89C784.14 260.679 768.453 246.244 754.011 229.859C738.18 211.898 727.518 199.736 726.652 174.736C725.463 140.41 750.702 116.485 784.571 117.017C795.14 117.235 803.872 118.895 814.297 121.482C831.437 105.114 854.196 85.1429 869.971 68.7926Z"/></g></g><g class="kltext"><path fill="#1E1C1D" transform="scale(0.527344 0.527344)" d="M73.8732 549.381L73.1451 549.058C29.0087 568.697 29.9682 608.467 30.9492 649.132C31.0859 654.797 31.223 660.48 31.2386 666.128L31.3431 752.978C31.3545 765.582 31.3344 778.181 31.3143 790.779C31.2611 824.233 31.2079 857.675 31.7428 891.141C32.2802 924.674 48.0486 946.555 81.3237 954.786C77.5918 949.386 71.4317 940.169 70.9043 933.322C64.9797 856.298 67.3217 802.437 111.658 737.058C178.628 762.24 181.6 802.689 209.393 859.101C237.238 915.614 293.377 955.813 357.275 958.126C311.247 935.246 278.169 910.242 260.021 860.872C241.759 811.196 226.339 788.208 182.263 758.594C156.752 742.941 143.314 738.016 114.026 732.822C162.66 664.264 232.571 591.38 319.243 575.907C342.279 571.793 360.159 574.8 382.24 580.715C373.063 585.311 367.487 588.394 364.034 599.23C361.591 607.101 362.493 615.63 366.523 622.816C370.37 629.736 376.87 634.788 384.524 636.805C398.664 640.416 416.514 632.355 419.219 617.525C425.042 585.585 378.344 555.846 352.719 553.234C230.091 540.738 113.222 706.152 69.4082 802.991L69.657 580.227C69.7101 570.39 70.1297 565.514 73.1036 555.848C73.3724 554.974 73.6314 554.281 73.85 553.696C74.5108 551.926 74.8018 551.147 73.8732 549.381Z"/><path fill="#1E1C1D" transform="scale(0.527344 0.527344)" d="M792.779 549.067C792.323 549.052 791.742 549.032 790.953 548.958C750.383 570.552 750.549 600.59 750.777 641.605C750.783 642.593 750.788 643.588 750.793 644.589C750.863 658.401 751.132 672.584 751.235 686.415L751.706 849.285C751.714 853.871 751.733 858.461 751.753 863.055C751.861 888.585 751.97 914.218 750.128 939.638C749.755 944.791 745.353 947.85 744.244 952.393C754.097 958.455 779.62 932.175 783.266 922.79C791.455 901.703 790.672 876.825 789.955 854.029C789.871 851.373 789.789 848.745 789.721 846.154C804.969 828.154 822.756 806.131 839.06 789.565C863.159 796.931 873.37 805.872 885.056 828.812C890.233 838.974 894.949 850.015 899.725 861.199C919.734 908.05 940.818 957.418 1001.43 955.275C982.657 944.984 978.927 944.13 968.526 925.638C944.235 875.211 940.731 815.091 878.531 791.726C867.664 787.644 853.659 786.274 841.927 786.07L897.138 721.054C906.834 709.668 919.788 693.576 930.099 683.197C930.978 683.189 931.881 683.193 932.798 683.197C937.806 683.219 943.234 683.244 947.475 681.28L947.788 679.702C942.156 676.589 935.316 676.958 928.848 677.306C927.99 677.352 927.138 677.398 926.296 677.435C899.864 709.296 872.743 739.973 845.613 771.215C827.179 792.443 809.666 815.149 790.817 836.033L790.839 652.243C790.839 643.383 790.816 634.436 790.793 625.453C790.742 605.43 790.691 585.233 790.89 565.448C790.938 560.57 793.498 554.775 795.682 550.436C794.381 549.121 794.145 549.113 792.779 549.067Z"/><path fill="#1E1C1D" transform="scale(0.527344 0.527344)" d="M1533.2 549.661L1531.39 549.116C1491.17 568.437 1490.99 592.5 1490.71 631.853C1490.7 633.524 1490.69 635.223 1490.67 636.951C1490.61 643.845 1490.62 650.865 1490.63 657.837C1490.63 660.438 1490.64 663.033 1490.64 665.613L1491.27 862.446L1491.43 909.58C1491.47 913.117 1491.53 916.052 1491.59 918.567C1491.91 932.159 1491.94 933.472 1484.27 951.068L1484.9 952.215C1496.09 952.411 1503.82 946.866 1511.7 939.537C1531.77 920.88 1530.46 886.406 1529.4 858.274C1529.22 853.637 1529.05 849.173 1528.98 844.98C1545.14 828.58 1559.27 808.098 1575.97 791.247C1605.28 794.731 1614.64 808.305 1626.99 833.896C1649.62 880.785 1661.94 946.429 1724.25 953.857C1728.63 954.352 1733.04 954.695 1737.44 954.886C1721.77 944.765 1715.35 938.683 1706.41 921.61C1697.43 902.894 1691.88 881.253 1683.39 861.998C1661.94 813.296 1635.32 786.631 1580.25 786.034C1609.28 753.365 1639.07 715.307 1668.28 683.966C1677.73 682.794 1683.73 682.087 1693.04 679.712C1682.46 677.855 1676.39 677.374 1665.6 678.07C1618.47 730.821 1575.16 783.204 1529.15 836.483L1529.03 673.746C1529.01 664.593 1528.87 655.481 1528.73 646.384C1528.42 626.984 1528.12 607.655 1529 588.149C1529.62 574.953 1532.44 562.268 1533.2 549.661Z"/><path fill="#1E1C1D" transform="scale(0.527344 0.527344)" d="M615.729 676.009C608.619 675.151 601.447 674.929 594.297 675.344C542.273 681.666 516.752 706.954 498.421 754.979C498.352 750.229 498.154 745.319 497.953 740.335C497.064 718.305 496.117 694.818 506.006 677.206C457.248 696.509 458.097 738.121 458.984 781.622C459.091 786.866 459.198 792.138 459.22 797.402L459.775 894.701C459.791 897.186 459.831 899.793 459.872 902.477C460.063 915.035 460.28 929.274 458.188 940.595C457.311 945.332 453.433 949.084 450.071 952.428L450.93 954.202C455.819 954.965 458.225 953.448 461.433 951.425C462.464 950.774 463.578 950.072 464.884 949.376C499.216 931.087 499.287 906.305 499.38 873.779C499.387 871.211 499.395 868.596 499.419 865.931C499.507 856.339 499.289 846.847 499.074 837.459C498.123 796.078 497.219 756.741 522.796 719.939C547.018 686.766 593.615 667.013 631.325 692.629C649.648 705.077 656.687 732.643 659.691 753.149C662.916 777.343 662.461 802.369 662.009 827.191C661.791 839.21 661.573 851.18 661.774 862.985C661.834 866.499 661.82 870.062 661.806 873.647C661.753 887.102 661.698 900.873 665.534 913.529C668.823 924.718 675.682 934.523 685.063 941.446C694.139 948.276 700.75 950.668 711.506 953.696C709.358 950.96 705.248 945.772 704.734 942.499C700.983 918.625 701.507 892.741 702.019 867.42C702.263 855.367 702.504 843.442 702.281 831.922C702.14 824.663 702.168 817.516 702.196 810.488C702.365 768.208 702.516 730.256 665.612 698.388C651.577 686.134 634.211 678.344 615.729 676.009Z"/><path fill="#1E1C1D" transform="scale(0.527344 0.527344)" d="M1430.03 729.854C1412.65 694.459 1374.14 671.811 1334.46 675.354C1282.14 681.787 1254.06 706.76 1237.89 756.742C1237.79 753.732 1237.66 750.673 1237.53 747.578C1236.57 724.5 1235.54 699.444 1243.22 678.281C1197.51 695.734 1197.96 732.706 1198.46 773.422C1198.49 776.158 1198.53 778.911 1198.55 781.677L1199.19 867.221C1199.26 871.531 1199.43 876.148 1199.6 880.956C1200.48 905.284 1201.53 934.522 1191.3 953.852C1234.4 941.431 1237.33 920.417 1237.83 880.104C1237.97 869.078 1237.71 858.116 1237.45 847.247C1236.37 801.431 1235.33 757.262 1264.17 716.949C1279.86 699.089 1304.08 680.566 1328.91 680.812C1407.04 681.586 1404.57 765.003 1402.43 837.346C1401.55 867.349 1400.72 895.447 1405.72 914.955C1410.84 934.931 1433.28 948.147 1451.36 954.161C1440.92 936.882 1441.46 920.772 1442.09 901.993C1442.21 898.258 1442.34 894.419 1442.39 890.443L1442.7 823.136C1442.71 819.812 1442.73 816.498 1442.76 813.195C1442.98 784.518 1443.19 756.673 1430.03 729.854Z"/><path fill="#1E1C1D" transform="scale(0.527344 0.527344)" d="M1061.32 549.441L1060.37 549.192C1031.73 559.326 1020.58 572.177 1020 603.393C1019.31 641.424 1019.35 679.496 1019.38 717.554C1019.39 729.688 1019.4 741.82 1019.39 753.949C1019.38 769.246 1019.11 784.557 1018.85 799.871C1018.29 832.195 1017.74 864.532 1019.51 896.777C1020.61 916.947 1025.45 930.551 1041.51 943.587C1052.56 950.747 1056.55 951.728 1069.56 954.652C1064.84 948.619 1059.63 943.363 1059.23 935.84C1058.2 916.164 1058.34 895.463 1058.48 875.306C1058.52 869.42 1058.56 863.58 1058.57 857.826L1058.58 708.268L1058.53 603.595C1058.53 600.787 1058.44 597.474 1058.34 593.877C1057.94 579.4 1057.42 560.314 1062.08 550.94L1061.32 549.441Z"/><path fill="#1E1C1D" transform="scale(0.527344 0.527344)" d="M412.101 794.227C413.219 751.684 414.853 689.509 368.933 677.491C372.101 700.639 371.927 720.134 371.729 742.184C371.692 746.374 371.653 750.656 371.637 755.073L371.277 846.668C371.261 850.12 371.194 853.935 371.124 857.967C370.818 875.477 370.441 897.081 373.813 910.825C376.742 923.174 383.945 934.087 394.149 941.629C402.22 947.704 409.959 950.749 419.673 953.206C410.199 940.086 410.692 922.975 411.178 906.155C411.277 902.717 411.375 899.291 411.389 895.913L411.797 809.586C411.82 804.894 411.956 799.725 412.101 794.227Z"/><path fill="#1E1C1D" transform="scale(0.527344 0.527344)" d="M1142.48 710.238C1135.89 694.498 1125.03 683.945 1109.35 677.43C1111.46 709.01 1111.11 740.743 1110.77 772.447C1110.54 794.004 1110.31 815.548 1110.84 837.022C1111.05 845.135 1110.82 853.419 1110.59 861.647C1109.48 902.508 1108.4 942.015 1160.03 952.613C1157.34 949.336 1154.42 946.002 1153.09 941.901C1149.25 930.003 1149.51 914.415 1149.74 900.753C1149.79 897.634 1149.84 894.616 1149.84 891.765C1149.84 883.9 1150.06 873.255 1150.31 860.996C1151.34 811.311 1152.91 735.13 1142.48 710.238Z"/><path fill="#1E1C1D" transform="scale(0.527344 0.527344)" d="M1155.29 592.146C1148.56 584.475 1138.21 581.05 1128.24 583.196C1113.31 586.41 1103.68 600.955 1106.54 615.956C1109.4 630.958 1123.71 640.933 1138.77 638.424C1148.84 636.747 1157.2 629.749 1160.63 620.141C1164.06 610.531 1162.02 599.817 1155.29 592.146Z"/></g></g></svg>