<?xml version="1.0" encoding="utf-8" ?><svg xmlns="http://www.w3.org/2000/svg" xmlns:xlink="http://www.w3.org/1999/xlink" width="1279" height="896" viewBox="0 0 1279 896"><clipPath id="cl_3"><rect width="1279.25" height="896"/></clipPath><g clip-path="url(#cl_3)"><path fill="#DB973C" transform="scale(0.875 0.875)" d="M780.814 371.32C786.988 374.79 807.02 396.6 813.303 403.195C763.709 446.056 716.059 527.393 639.856 491.418C619.03 481.587 606.794 467.126 598.997 445.723C597.583 441.092 596.531 436.357 595.853 431.563C592.353 407.674 598.836 391.826 612.704 373.12C621.651 380.887 635.39 396.05 643.653 404.804C638.785 419.42 638.966 435.639 651.003 446.342C681.036 473.047 713.108 438.04 733.717 418.185C750.512 402.004 765.262 387.612 780.814 371.32Z"/><path fill="#DB973C" transform="scale(0.875 0.875)" d="M766.963 288.485C769.849 289.443 782.824 301.95 785.306 304.699C807.927 329.751 843.578 355.878 859.392 385.865C868.782 403.568 870.807 424.264 865.026 443.452C854.713 476.71 822.819 496.91 789.343 499.898C776.133 501.077 765.675 498.659 753.397 494.713C747.229 491.839 741.349 488.488 735.389 485.203C746.815 473.674 757.697 463.832 769.809 453.146C795.277 460.108 824.352 451.305 823.138 420.55C822.951 414.555 821.189 408.716 818.031 403.618C809.503 389.635 785.28 367.097 773.055 355.131C760.999 343.33 747.098 329.413 734.708 318.091C746.366 305.309 752.612 298.256 766.963 288.485Z"/><path fill="#DB973C" transform="scale(0.875 0.875)" d="M776.851 236.801C795.242 233.303 819.986 241.322 834.797 252.101C852.301 264.579 863.988 283.635 867.178 304.898C870.406 326.941 863.97 345.458 851.043 363.013C843.667 356.733 827.266 338.763 819.39 330.752C822.814 318.457 824.827 302.713 815.496 292.738C796.513 272.446 773.899 277.376 754.9 292.39C732.284 311.484 701.548 343.246 681.486 364.767C670.549 356.512 658.729 342.922 649.515 332.634C662.769 319.051 676.127 305.569 689.588 292.191C716.186 265.41 737.137 241.151 776.851 236.801Z"/><path fill="#DB973C" transform="scale(0.875 0.875)" d="M671.753 236.067C689.405 232.894 711.105 241.682 726.251 250.546C716.74 260.404 703.018 272.445 692.684 282.314C686.399 280.754 681.134 279.753 674.762 279.622C654.342 279.301 639.125 293.726 639.842 314.422C640.364 329.495 646.792 336.828 656.337 347.657C665.044 357.536 674.502 366.239 683.897 375.41C698.259 389.648 712.772 403.731 727.435 417.658L720.269 424.333C712.956 432.324 703.263 440.626 694.415 446.894C678.066 427.75 656.62 410.752 639.088 392.407C627.238 380.007 614.44 369.236 605.475 354.22C600.14 345.344 596.729 335.445 595.462 325.166C589.085 275.526 625.217 241.684 671.753 236.067Z"/><path fill="#1E1C1D" transform="scale(0.875 0.875)" d="M245.833 540.11L246.272 540.305C247.017 541.722 246.46 542.085 245.808 544.204C244.015 550.032 243.762 552.972 243.73 558.903L243.58 693.213C269.996 634.826 340.458 535.094 414.392 542.628C429.842 544.203 457.997 562.133 454.486 581.391C452.855 590.332 442.093 595.192 433.568 593.015C428.953 591.799 425.034 588.753 422.715 584.581C420.285 580.248 419.741 575.106 421.214 570.36C423.296 563.827 426.658 561.968 432.191 559.197C418.878 555.631 408.098 553.818 394.209 556.298C341.953 565.627 299.803 609.571 270.481 650.906C288.139 654.038 296.241 657.007 311.622 666.445C338.196 684.3 347.493 698.16 358.503 728.111C369.445 757.877 389.388 772.953 417.139 786.748C378.614 785.353 344.767 761.116 327.979 727.043C311.222 693.031 309.43 668.643 269.053 653.46C242.322 692.879 240.91 725.353 244.482 771.793C244.8 775.921 248.514 781.478 250.764 784.734C230.702 779.771 221.195 766.579 220.871 746.361C220.427 718.585 220.655 690.838 220.63 663.059L220.567 610.695C220.49 582.847 215.515 553.601 245.833 540.11Z"/><path fill="#1E1C1D" transform="scale(0.875 0.875)" d="M678.61 540.05C680.511 540.228 680.415 539.884 681.461 540.941C680.144 543.557 678.601 547.051 678.572 549.992C678.398 567.272 678.541 585.073 678.541 602.323L678.528 713.135C689.892 700.543 700.451 686.853 711.565 674.054C727.922 655.218 744.274 636.722 760.21 617.512C764.541 617.32 769.322 616.753 773.168 618.879L772.979 619.83C769.954 621.231 765.928 620.954 762.503 620.986C756.286 627.244 748.476 636.946 742.63 643.811L709.343 683.011C716.416 683.134 724.86 683.96 731.412 686.421C768.913 700.508 771.026 736.756 785.671 767.16C791.942 778.309 794.191 778.824 805.51 785.029C760.242 786.629 751.543 740.575 735.346 708.781C728.3 694.95 722.144 689.559 707.614 685.118C697.784 695.106 687.06 708.384 677.867 719.237C678.257 734.202 679.488 751.247 673.975 765.443C671.777 771.101 656.389 786.946 650.448 783.291C651.117 780.552 653.771 778.708 653.996 775.601C655.306 757.517 654.979 739.254 654.947 721.125L654.663 622.926C654.601 614.587 654.439 606.036 654.397 597.708C654.269 572.056 653.56 553.383 678.61 540.05Z"/><path fill="#1E1C1D" transform="scale(0.875 0.875)" d="M1125.03 540.145L1126.12 540.474C1125.66 548.075 1123.96 555.723 1123.59 563.679C1122.81 580.954 1123.57 597.999 1123.61 615.288L1123.68 713.406C1151.42 681.283 1177.53 649.7 1205.95 617.895C1212.45 617.475 1216.11 617.765 1222.49 618.885C1216.88 620.317 1213.26 620.743 1207.56 621.45C1189.95 640.346 1171.99 663.292 1154.49 682.989C1187.69 683.349 1203.74 699.426 1216.67 728.79C1221.79 740.399 1225.14 753.447 1230.55 764.731C1235.94 775.025 1239.81 778.692 1249.26 784.794C1246.61 784.679 1243.95 784.472 1241.31 784.174C1203.74 779.695 1196.31 740.117 1182.67 711.846C1175.22 696.417 1169.58 688.233 1151.91 686.132C1141.84 696.292 1133.32 708.641 1123.58 718.529C1123.86 736.395 1127.25 762.437 1113.16 775.54C1108.41 779.959 1103.75 783.302 1097 783.184L1096.62 782.492C1102.1 769.92 1101.06 771.135 1100.94 757.478L1100.84 729.06L1100.46 610.384C1100.46 604.662 1100.43 598.811 1100.48 593.103C1100.71 567.54 1099.75 552.289 1125.03 540.145Z"/><path fill="#1E1C1D" transform="scale(0.875 0.875)" d="M560.043 616.251C564.354 616.001 568.678 616.135 572.965 616.652C584.108 618.06 594.578 622.757 603.04 630.145C628.988 652.553 624.551 679.949 625.148 710.656C625.566 732.193 623.289 756.08 626.627 777.326C626.937 779.299 629.415 782.427 630.71 784.077C624.225 782.251 620.239 780.809 614.767 776.691C609.111 772.517 604.976 766.605 602.993 759.859C600.064 750.195 600.897 739.453 600.726 729.385C600.354 707.567 602.356 684.812 599.47 663.162C597.659 650.798 593.415 634.178 582.368 626.673C559.632 611.228 531.538 623.138 516.934 643.139C498.015 670.361 503.127 699.884 502.84 731.161C502.638 753.12 504.351 769.575 482.018 781.472C478.781 783.197 477.5 784.99 473.605 784.382L473.087 783.312C475.114 781.296 477.452 779.034 477.981 776.178C479.512 767.893 478.992 757.017 478.938 748.507L478.603 689.843C478.484 660.346 473.87 630.415 506.811 617.374C499.5 630.395 502.013 648.743 502.238 664.265C513.29 635.31 528.677 620.063 560.043 616.251Z"/><path fill="#1E1C1D" transform="scale(0.875 0.875)" d="M1006.3 616.257C1030.22 614.121 1053.44 627.776 1063.92 649.117C1072.77 667.149 1071.59 685.951 1071.56 705.359L1071.37 745.94C1071.2 760.391 1069.23 771.868 1076.78 784.357C1065.88 780.731 1052.35 772.763 1049.26 760.719C1038.98 720.595 1069.59 620.208 1002.95 619.548C987.979 619.4 973.379 630.568 963.922 641.336C942.402 671.408 948.471 705.039 948.039 739.706C947.735 764.012 945.971 776.682 919.986 784.171C927.369 770.213 925.001 747.686 924.743 731.939L924.355 680.362C924.163 653.886 921.874 629.252 951.29 618.022C946.035 632.493 947.544 649.983 948.074 665.328C957.823 635.193 974.756 620.136 1006.3 616.257Z"/><path fill="#1E1C1D" transform="scale(0.875 0.875)" d="M841.047 540.191L841.619 540.341L842.078 541.245C838.567 548.301 839.932 564.484 839.937 572.992L839.964 636.102L839.962 726.274C839.933 741.625 839.553 757.984 840.358 773.311C840.597 777.847 843.738 781.016 846.588 784.653C838.741 782.89 836.336 782.299 829.676 777.982C819.989 770.122 817.075 761.92 816.408 749.759C814.838 721.107 816.309 692.336 816.339 663.644C816.37 633.394 816.158 603.111 816.708 572.87C817.058 554.049 823.777 546.301 841.047 540.191Z"/><path fill="#1E1C1D" transform="scale(0.875 0.875)" d="M424.168 617.546C455.431 625.728 450.135 672.471 450.011 697.189L449.765 749.238C449.718 761.236 447.88 774.254 454.76 783.781C448.903 782.3 444.237 780.464 439.371 776.801C433.219 772.254 428.876 765.674 427.11 758.229C424.609 748.034 425.529 730.666 425.581 719.547L425.798 664.322C425.86 647.644 426.441 634.154 424.168 617.546Z"/><path fill="#1E1C1D" transform="scale(0.875 0.875)" d="M870.578 617.509C880.03 621.437 886.575 627.8 890.552 637.29C898.393 656.001 894.981 722.776 894.986 746.737C894.988 755.987 894.102 768.154 896.95 776.965C897.749 779.438 899.507 781.448 901.131 783.424C863.734 775.747 872.204 742.914 871.476 713.731C870.677 681.744 872.707 649.497 870.578 617.509Z"/><path fill="#1E1C1D" transform="scale(0.875 0.875)" d="M881.965 560.693C887.978 559.399 894.219 561.464 898.274 566.089C902.329 570.714 903.561 577.174 901.493 582.968C899.425 588.761 894.383 592.98 888.316 593.991C879.236 595.504 870.608 589.49 868.883 580.445C867.158 571.4 872.966 562.631 881.965 560.693Z"/></g></svg>